<svg xmlns="http://www.w3.org/2000/svg" width="300" height="300" viewBox="0 0 300 300" fill="none"><g clip-path="url(#clip0_2_891)"><path d="M150 294.4C229.75 294.4 294.4 229.75 294.4 150C294.4 70.2501 229.75 5.60004 150 5.60004C70.2501 5.60004 5.59998 70.2501 5.59998 150C5.59998 229.75 70.2501 294.4 150 294.4Z" fill="url(#paint0_linear_2_891)"></path><path d="M283.6 149.5C283.6 155 283.3 160.4 282.7 165.7C282 171.7 280.9 177.5 279.4 183.3C278.8 185.8 278.1 188.2 277.3 190.6C275.9 195 274.2 199.4 272.4 203.6C268.4 212.8 263.3 221.5 257.4 229.5C252.4 236.3 246.7 242.6 240.5 248.2C216.8 270 185.2 283.4 150.5 283.6C115.7 283.7 84.0001 270.5 60.1001 248.8C54.0001 243.2 48.4001 237.1 43.4001 230.5C34.0001 218.1 26.8001 204.1 22.2001 188.9C20.0001 181.8 18.5001 174.5 17.5001 166.9C16.8001 161.5 16.5001 156 16.4001 150.4C16.1001 76.7 75.7001 16.7 149.5 16.4C223.3 16.1 283.3 75.7 283.6 149.5Z" fill="#292C2B"></path><path d="M280.4 180.3C263.2 254.3 188.1 299.1 114.8 279.2C45.7 260.3 3.40001 189.4 19.6 119.7C36.8 45.7 111.9 0.899999 185.2 20.8C254.2 39.7 296.6 110.6 280.4 180.3Z" fill="url(#paint1_radial_2_891)"></path><path d="M280.4 180.3C263.2 254.3 188.1 299.1 114.8 279.2C45.7 260.3 3.40001 189.4 19.6 119.7C36.8 45.7 111.9 0.899999 185.2 20.8C254.2 39.7 296.6 110.6 280.4 180.3Z" stroke="url(#paint2_radial_2_891)" stroke-miterlimit="10"></path><path opacity="0.18" d="M150 244.4C202.136 244.4 244.4 202.136 244.4 150C244.4 97.8643 202.136 55.6 150 55.6C97.8643 55.6 55.6 97.8643 55.6 150C55.6 202.136 97.8643 244.4 150 244.4Z" fill="url(#paint3_radial_2_891)"></path><path d="M150 238.2C198.712 238.2 238.2 198.712 238.2 150C238.2 101.288 198.712 61.8 150 61.8C101.289 61.8 61.8 101.288 61.8 150C61.8 198.712 101.289 238.2 150 238.2Z" fill="url(#paint4_linear_2_891)"></path><path d="M150 238.2C198.712 238.2 238.2 198.712 238.2 150C238.2 101.288 198.712 61.8 150 61.8C101.289 61.8 61.8 101.288 61.8 150C61.8 198.712 101.289 238.2 150 238.2Z" fill="url(#paint5_radial_2_891)"></path><path d="M152.6 216L146.9 219.6L148.5 213L143.3 208.6L150.1 208.2L152.6 201.8L155.2 208.2L161.9 208.6L156.7 213L158.4 219.6L152.6 216Z" fill="#2B2D2E"></path><path d="M126.2 212.1L121.2 215.2L122.6 209.5L118.1 205.8L124 205.4L126.2 199.9L128.4 205.4L134.2 205.8L129.7 209.5L131.1 215.2L126.2 212.1Z" fill="#2B2D2E"></path><path d="M179.1 212.1L174.1 215.2L175.5 209.5L171 205.8L176.9 205.4L179.1 199.9L181.3 205.4L187.1 205.8L182.6 209.5L184 215.2L179.1 212.1Z" fill="#2B2D2E"></path><path d="M152.6 89.6L146.9 93.2L148.5 86.6L143.3 82.3L150.1 81.8L152.6 75.5L155.2 81.8L161.9 82.3L156.7 86.6L158.4 93.2L152.6 89.6Z" fill="#2B2D2E"></path><path d="M126.2 92.5L121.2 95.6L122.6 89.9L118.1 86.2L124 85.8L126.2 80.3L128.4 85.8L134.2 86.2L129.7 89.9L131.1 95.6L126.2 92.5Z" fill="#2B2D2E"></path><path d="M179.1 92.5L174.1 95.6L175.5 89.9L171 86.2L176.9 85.8L179.1 80.3L181.3 85.8L187.1 86.2L182.6 89.9L184 95.6L179.1 92.5Z" fill="#2B2D2E"></path><path d="M56.5 207.4C57.1 207.1 59 206.1 59.7 203.3C60.6 199.1 59 190 59 190C59 190 56 193.1 54.5 196.8C53.3 199.7 54.7 203.8 55.7 206C52.8 201.2 50.4 196.5 48.4 191.9C49 191.8 51.0999 191.1 52.0999 188.7C53.6999 185.1 53.7 176.5 53.7 176.5C53.7 176.5 50.1999 179 48.0999 182.1C46.4999 184.5 47.1 188.1 47.7 190.3C45.8 185.8 44.2 181.4 43 177.1C43.7 177 45.6999 176.6 47.0999 174.6C49.2999 171.5 50.5999 163.5 50.5999 163.5C50.5999 163.5 46.8 165.4 44.2 168.1C42.4 170 42.3 173.1 42.5 175.1C41.4 170.8 40.5 166.7 40 162.8C40.9 162.8 42.7 162.5 44.2 160.9C46.9 158.2 49.4 150.6 49.4 150.6C49.4 150.6 45.2999 152 42.2999 154.3C40.5999 155.6 39.8999 157.8 39.5999 159.7C39.1999 155.9 39 152.2 38.9 148.8C39.8 148.8 41.5999 148.7 43.2999 147.4C46.3999 145 50.0999 137.9 50.0999 137.9C50.0999 137.9 45.8 138.9 42.4 140.8C40.5 141.9 39.5 143.9 38.9 145.6C38.9 144.2 38.9999 142.8 39.0999 141.4C39.2999 139.2 39.4999 137.1 39.7999 135C40.6999 135.1 42.6 135.2 44.5 134C47.9 131.9 52.9 125.1 52.9 125.1C52.9 125.1 48.4 125.6 44.7 127.2C42.4 128.2 40.9999 130.5 40.0999 132.3C40.7999 128 41.6999 124.2 42.5999 120.9C43.0999 121.1 45.3 121.7 47.9 120.5C51.7 118.8 57.9 112.3 57.9 112.3C57.9 112.3 53.2999 112.2 49.2999 113.5C45.7999 114.7 43.4999 118.6 42.7999 120.2C44.5999 114.2 46.4 110 47.2 108.3C48.2 107.8 50.1 106.6 51.7 104.4C54.6 100.3 57.9 90.2 57.9 90.2C57.9 90.2 51.7 95.5 48.4 99.7C45.4 103.5 46.1 107 46.4 108.3C45.5 110.1 43.7999 114.1 42.0999 119.8C42.4999 118.1 43.2 113.8 41.5 110.9C39.5 107.6 36.4 104.5 36.4 104.5C36.4 104.5 35.5 114.4 37.5 117.8C39 120.4 41.7 120.5 41.9 120.5C40.9 124 39.9 128.2 39.2 132.8C39.2 130.8 38.7999 127.7 37.0999 125.7C34.5999 122.8 31.1 120.3 31.1 120.3C31.1 120.3 31.9 129.5 34.4 132.6C36.1 134.6 38.3 134.8 39 134.8C38.7 136.9 38.4999 139.1 38.2999 141.3C38.1999 143.2 38.0999 145.2 38.0999 147.2C37.7999 145.3 36.9999 142 34.7999 140C31.8999 137.4 28 135.3 28 135.3C28 135.3 30 144.3 33 147C35 148.9 37.3 148.8 37.9 148.8C37.9 153.1 38.2 157.7 38.9 162.7C38.7 161.8 37.5 156.8 34.2 154.4C30.9 152 26.7 150.2 26.7 150.2C26.7 150.2 30.3 158.9 33.7 161.5C36.3 163.5 38.9 162.9 38.9 162.9C39.5 167.2 40.4 171.6 41.7 176.3C40.9 174.5 39.0999 170.8 36.0999 169C32.4999 166.8 28.1 165.3 28.1 165.3C28.1 165.3 32.9999 174 36.7999 176.5C39.3999 178.1 41.5999 177.6 42.0999 177.4C43.3999 181.9 45.0999 186.6 47.0999 191.4C46.0999 189.7 43.6 185.7 40.2 184.1C36.3 182.2 31.7 180.9 31.7 180.9C31.7 180.9 37.8999 189.8 42.0999 192C44.9999 193.5 47.1 192.6 47.5 192.4C49.6 197.2 52.1999 202.2 55.2999 207.2C54.0999 205.6 50.6999 201.3 46.7999 199.9C42.4999 198.3 37.7999 197.4 37.7999 197.4C37.7999 197.4 45.5999 206.5 50.0999 208.3C53.4999 209.6 55.4999 208 55.5999 207.9C58.1999 212.1 61.1999 216.4 64.5999 220.8L65.1999 220.3C61.9999 215.8 59.1 211.6 56.5 207.4Z" fill="url(#paint6_linear_2_891)"></path><path d="M242.5 207.4C241.9 207.1 240 206.1 239.3 203.3C238.4 199.1 240 190 240 190C240 190 243 193.1 244.5 196.8C245.7 199.7 244.3 203.8 243.3 206C246.2 201.2 248.6 196.5 250.6 191.9C250 191.8 247.9 191.1 246.9 188.7C245.3 185.1 245.3 176.5 245.3 176.5C245.3 176.5 248.8 179 250.9 182.1C252.5 184.5 251.9 188.1 251.3 190.3C253.2 185.8 254.8 181.4 256 177.1C255.3 177 253.3 176.6 251.9 174.6C249.7 171.5 248.4 163.5 248.4 163.5C248.4 163.5 252.2 165.4 254.8 168.1C256.6 170 256.7 173.1 256.5 175.1C257.6 170.8 258.5 166.7 259 162.8C258.1 162.8 256.3 162.5 254.8 160.9C252.1 158.2 249.6 150.6 249.6 150.6C249.6 150.6 253.7 152 256.7 154.3C258.4 155.6 259.1 157.8 259.4 159.7C259.8 155.9 260 152.2 260.1 148.8C259.2 148.8 257.4 148.7 255.7 147.4C252.6 145 248.9 137.9 248.9 137.9C248.9 137.9 253.2 138.9 256.6 140.8C258.5 141.9 259.5 143.9 260.1 145.6C260.1 144.2 260 142.8 259.9 141.4C259.7 139.2 259.5 137.1 259.2 135C258.3 135.1 256.4 135.2 254.5 134C251.1 131.9 246.1 125.1 246.1 125.1C246.1 125.1 250.6 125.6 254.3 127.2C256.6 128.2 258 130.5 258.9 132.3C258.2 128 257.3 124.2 256.4 120.9C255.9 121.1 253.7 121.7 251.1 120.5C247.3 118.8 241.1 112.3 241.1 112.3C241.1 112.3 245.7 112.2 249.7 113.5C253.2 114.7 255.5 118.6 256.2 120.2C254.4 114.2 252.6 110 251.8 108.3C250.8 107.8 248.9 106.6 247.3 104.4C244.4 100.3 241.1 90.2 241.1 90.2C241.1 90.2 247.3 95.5 250.6 99.7C253.6 103.5 252.9 107 252.6 108.3C253.5 110.1 255.2 114.1 256.9 119.8C256.5 118.1 255.8 113.8 257.5 110.9C259.5 107.6 262.6 104.5 262.6 104.5C262.6 104.5 263.5 114.4 261.5 117.8C260 120.4 257.3 120.5 257.1 120.5C258.1 124 259.1 128.2 259.8 132.8C259.8 130.8 260.2 127.7 261.9 125.7C264.4 122.8 267.9 120.3 267.9 120.3C267.9 120.3 267.1 129.5 264.6 132.6C262.9 134.6 260.7 134.8 260 134.8C260.3 136.9 260.5 139.1 260.7 141.3C260.8 143.2 260.9 145.2 260.9 147.2C261.2 145.3 262 142 264.2 140C267.1 137.4 271 135.3 271 135.3C271 135.3 268.8 144.1 265.8 146.9C263.8 148.8 261.5 148.7 260.9 148.7C260.9 153 260.6 157.6 259.9 162.6C260.1 161.7 261.3 156.7 264.6 154.3C267.9 151.9 272.1 150.1 272.1 150.1C272.1 150.1 268.5 158.8 265.1 161.4C262.5 163.4 259.9 162.8 259.9 162.8C259.3 167.1 258.4 171.5 257.1 176.2C257.9 174.4 259.7 170.7 262.7 168.9C266.3 166.7 270.7 165.2 270.7 165.2C270.7 165.2 265.8 173.9 262 176.4C259.4 178 257.2 177.5 256.7 177.3C255.4 181.8 253.7 186.5 251.7 191.3C252.7 189.6 255.2 185.6 258.6 184C262.5 182.1 267.1 180.8 267.1 180.8C267.1 180.8 260.9 189.7 256.7 191.9C253.8 193.4 251.7 192.5 251.3 192.3C249.2 197.1 246.6 202.1 243.5 207.1C244.7 205.5 248.1 201.2 252 199.8C256.3 198.2 261 197.3 261 197.3C261 197.3 253.2 206.4 248.7 208.2C245.3 209.5 243.3 207.9 243.2 207.8C240.6 212 237.6 216.3 234.2 220.7L233.6 220.2C236.9 215.8 239.9 211.6 242.5 207.4Z" fill="url(#paint7_linear_2_891)"></path><path d="M139.193 132.504C143.873 133.866 146.256 137.695 146.256 143.992V149.609C146.256 158.884 142.001 163.054 132.811 163.054H103.198C94.0073 163.054 89.7525 158.884 89.7525 149.609V141.525H106.772V145.779C106.772 148.588 107.708 149.524 110.516 149.524H124.812C127.62 149.524 128.556 148.588 128.556 145.779V142.29C128.556 139.312 127.79 138.546 124.812 138.546H113.494V126.803H123.961C126.769 126.803 127.705 125.867 127.705 123.059V120.761C127.705 117.953 126.939 117.017 123.961 117.017H111.367C108.559 117.017 107.623 117.953 107.623 120.761V124.335H90.6034V116.932C90.6034 107.657 94.8582 103.487 104.049 103.487H131.96C141.15 103.487 145.405 107.657 145.405 116.932V121.272C145.405 127.229 143.363 130.973 139.193 132.504ZM192.884 163.054H171.1C159.442 163.054 153.91 157.693 153.91 145.864V120.676C153.91 108.848 159.442 103.487 171.1 103.487H192.884C204.542 103.487 210.073 108.848 210.073 120.676V145.864C210.073 157.693 204.542 163.054 192.884 163.054ZM177.056 147.992H186.927C191.012 147.992 192.373 146.63 192.373 142.546V123.995C192.373 119.91 191.012 118.549 186.927 118.549H177.056C172.972 118.549 171.61 119.91 171.61 123.995V142.546C171.61 146.63 172.972 147.992 177.056 147.992Z" fill="black"></path><path d="M139.193 132.504C143.873 133.866 146.256 137.695 146.256 143.992V149.609C146.256 158.884 142.001 163.054 132.811 163.054H103.198C94.0073 163.054 89.7525 158.884 89.7525 149.609V141.525H106.772V145.779C106.772 148.588 107.708 149.524 110.516 149.524H124.812C127.62 149.524 128.556 148.588 128.556 145.779V142.29C128.556 139.312 127.79 138.546 124.812 138.546H113.494V126.803H123.961C126.769 126.803 127.705 125.867 127.705 123.059V120.761C127.705 117.953 126.939 117.017 123.961 117.017H111.367C108.559 117.017 107.623 117.953 107.623 120.761V124.335H90.6034V116.932C90.6034 107.657 94.8582 103.487 104.049 103.487H131.96C141.15 103.487 145.405 107.657 145.405 116.932V121.272C145.405 127.229 143.363 130.973 139.193 132.504ZM192.884 163.054H171.1C159.442 163.054 153.91 157.693 153.91 145.864V120.676C153.91 108.848 159.442 103.487 171.1 103.487H192.884C204.542 103.487 210.073 108.848 210.073 120.676V145.864C210.073 157.693 204.542 163.054 192.884 163.054ZM177.056 147.992H186.927C191.012 147.992 192.373 146.63 192.373 142.546V123.995C192.373 119.91 191.012 118.549 186.927 118.549H177.056C172.972 118.549 171.61 119.91 171.61 123.995V142.546C171.61 146.63 172.972 147.992 177.056 147.992Z" fill="#282A2C"></path><path d="M117.285 192.305H100.361V167.098H117.285C123.155 167.098 126.288 170.195 126.288 176.1V183.302C126.288 189.208 123.155 192.305 117.285 192.305ZM108.139 173.688V185.715H115.629C117.538 185.715 118.51 184.743 118.51 182.834V176.568C118.51 174.66 117.538 173.688 115.629 173.688H108.139ZM129.587 192.305V167.098H137.509V192.305H129.587ZM169.421 192.305H160.815L159.411 188.379H149.076L147.672 192.305H139.461L150.048 167.098H158.871L169.421 192.305ZM154.261 174.084L151.02 183.014H157.466L154.261 174.084ZM169.701 186.615V184.202H177.191V185.247C177.191 186.435 177.587 186.831 178.775 186.831H185.905C187.093 186.831 187.489 186.435 187.489 185.247V184.346C187.489 183.158 187.165 182.87 185.905 182.762L175.75 181.862C171.717 181.466 170.061 180.025 170.061 176.172V172.787C170.061 168.862 171.861 167.098 175.75 167.098H189.074C192.963 167.098 194.763 168.862 194.763 172.787V174.84H187.273V174.12C187.273 172.931 186.877 172.535 185.689 172.535H179.423C178.235 172.535 177.839 172.931 177.839 174.12V174.588C177.839 175.74 178.235 176.064 179.423 176.172L189.578 177.072C193.611 177.397 195.267 178.873 195.267 182.762V186.615C195.267 190.54 193.467 192.305 189.578 192.305H175.39C171.501 192.305 169.701 190.54 169.701 186.615Z" fill="#2B2D2E"></path><path d="M64.2779 80.862L62.2585 83.0535C61.3302 84.061 60.4264 84.1122 59.4042 83.1703L57.2274 81.1645C56.2052 80.2226 56.1823 79.3177 57.1107 78.3102L59.13 76.1187C60.0583 75.1111 60.9621 75.06 61.9843 76.0019L62.6388 76.605L61.2294 78.1347L60.8837 77.8162C60.5307 77.4909 60.2979 77.5075 59.9794 77.8532L58.9629 78.9563C58.6377 79.3093 58.6469 79.5354 58.9999 79.8606L60.559 81.2972C60.912 81.6224 61.1381 81.6132 61.4633 81.2602L62.4798 80.1571C62.7983 79.8114 62.7958 79.578 62.4428 79.2527L62.0457 78.8868L63.4551 77.3572L64.1611 78.0077C65.1833 78.9496 65.2062 79.8545 64.2779 80.862Z" fill="white"></path><path d="M73.8685 71.7848L71.4002 73.9144C70.3629 74.8093 69.4593 74.7569 68.5512 73.7045L66.6176 71.4633C65.7096 70.4109 65.7902 69.5093 66.8275 68.6143L69.2958 66.4848C70.3331 65.5898 71.2368 65.6422 72.1448 66.6946L74.0784 68.9358C74.9864 69.9882 74.9058 70.8898 73.8685 71.7848ZM70.7954 72.0193L72.0825 70.9087C72.4384 70.6017 72.4626 70.3695 72.149 70.0061L70.8033 68.4464C70.4898 68.0829 70.2565 68.0728 69.9007 68.3799L68.6135 69.4904C68.2501 69.8039 68.2335 70.0296 68.547 70.393L69.8927 71.9528C70.2063 72.3162 70.4319 72.3328 70.7954 72.0193Z" fill="white"></path><path d="M82.2662 61.2429L82.115 56.9663L83.62 55.9608L87.5086 61.7814L85.8456 62.8924L83.8957 59.9738L83.9513 62.8471L83.0366 63.4582L80.4034 62.307L82.3533 65.2256L80.6903 66.3366L76.8017 60.5161L78.3815 59.4606L82.2662 61.2429Z" fill="white"></path><path d="M95.2497 57.4087L93.3242 58.3876L90.1519 52.1477L94.5911 49.8908C95.7321 49.3107 96.4582 49.5474 97.0383 50.6884L97.6546 51.9007C98.2347 53.0417 97.9981 53.7678 96.8571 54.3479L94.3433 55.6259L95.2497 57.4087ZM92.8342 52.6575L93.6227 54.2085L95.3521 53.3293C95.7175 53.1435 95.7745 52.9687 95.5887 52.6033L95.2896 52.0149C95.1038 51.6494 94.929 51.5925 94.5635 51.7783L92.8342 52.6575Z" fill="white"></path><path d="M109.308 48.576L111.641 50.3155L109.451 51.1402L107.348 49.528L106.225 49.9509L107.018 52.0565L104.996 52.8178L102.529 46.2669L107.19 44.5118C108.388 44.0607 109.083 44.3757 109.535 45.5736L109.869 46.4626C110.254 47.4827 110.079 48.1255 109.308 48.576ZM106.927 46.3099L105.111 46.9936L105.682 48.5097L107.498 47.826C107.881 47.6815 107.957 47.514 107.813 47.1303L107.622 46.6249C107.478 46.2412 107.31 46.1654 106.927 46.3099Z" fill="white"></path><path d="M124.828 46.6379L122.51 47.2193L121.866 46.257L119.082 46.9552L118.969 48.1074L116.758 48.6621L117.906 41.1571L120.283 40.561L124.828 46.6379ZM119.513 42.7542L119.244 45.3786L120.98 44.9431L119.513 42.7542Z" fill="white"></path><path d="M138.493 42.4776L138.318 39.5228C138.236 38.1352 138.847 37.4678 140.215 37.3866L143.469 37.1933C144.836 37.1121 145.523 37.7024 145.605 39.09L145.635 39.5991L143.479 39.7271L143.47 39.5774C143.442 39.0983 143.273 38.948 142.793 38.9765L141.096 39.0773C140.617 39.1057 140.467 39.2749 140.495 39.7541L140.635 42.1099C140.663 42.5791 140.833 42.7393 141.312 42.7109L143.089 42.6053C143.568 42.5769 143.718 42.3977 143.69 41.9285L143.674 41.659L142.117 41.7515L142.033 40.344L145.667 40.1282L145.781 42.0448C145.863 43.4323 145.251 44.0998 143.884 44.181L140.63 44.3743C139.262 44.4555 138.576 43.8651 138.493 42.4776Z" fill="white"></path><path d="M160.46 44.4786L158.074 44.3369L157.749 43.2257L154.884 43.0556L154.43 44.1205L152.154 43.9854L155.504 37.172L157.95 37.3172L160.46 44.4786ZM156.557 39.1779L155.512 41.6002L157.299 41.7063L156.557 39.1779Z" fill="white"></path><path d="M172.363 43.746L173.486 46.4305L171.181 46.026L170.191 43.5679L169.009 43.3605L168.62 45.5766L166.493 45.2032L167.703 38.3086L172.608 39.1694C173.868 39.3907 174.307 40.0159 174.086 41.2766L173.921 42.2123C173.733 43.2859 173.256 43.7504 172.363 43.746ZM171.466 40.5834L169.555 40.248L169.275 41.8437L171.186 42.179C171.59 42.2499 171.74 42.1443 171.811 41.7405L171.905 41.2086C171.975 40.8048 171.87 40.6542 171.466 40.5834Z" fill="white"></path><path d="M186.709 49.9754L184.417 49.2963L184.353 48.1404L181.602 47.3248L180.918 48.2591L178.732 47.6112L183.54 41.7352L185.889 42.4314L186.709 49.9754ZM184.11 43.9277L182.543 46.0497L184.259 46.5583L184.11 43.9277Z" fill="white"></path><path d="M198.38 51.1482L199.896 47.6308L201.806 48.4537L199.036 54.8825L197.438 54.1941L195.893 49.2383L194.334 52.8568L192.424 52.0338L195.194 45.605L196.874 46.3291L198.38 51.1482Z" fill="white"></path><path d="M208.21 51.6292L214.017 54.9307L213.073 56.5911L211.109 55.4741L208.593 59.899L206.715 58.8315L209.231 54.4066L207.266 53.2896L208.21 51.6292Z" fill="white"></path><path d="M215.312 64.1021L219.299 58.3483L221.107 59.6013L217.121 65.3551L215.312 64.1021Z" fill="white"></path><path d="M226.12 72.3487L222.536 69.3087L227.063 63.9701L230.648 67.0101C231.891 68.0644 231.998 69.283 230.937 70.5338L229.644 72.0591C228.583 73.3098 227.363 73.403 226.12 72.3487ZM227.527 66.7629L225.367 69.3101L226.953 70.6555C227.357 70.9983 227.738 70.967 228.08 70.5628L229.206 69.2358C229.549 68.8316 229.517 68.451 229.113 68.1082L227.527 66.7629Z" fill="white"></path><path d="M238.28 84.3394L236.653 82.5886L237.186 81.5609L235.232 79.4586L234.168 79.9149L232.616 78.2447L239.745 75.6332L241.413 77.4279L238.28 84.3394ZM239.12 77.8109L236.691 78.8398L237.909 80.1511L239.12 77.8109Z" fill="white"></path><path d="M82.9166 230.222L78.935 236.533L81.2676 238.004L80.0201 239.982L72.4422 235.201L73.6897 233.223L76.4485 234.964L79.0407 230.855L76.4951 229.564L77.8024 227.492L81.7563 229.489L82.9166 230.222Z" fill="white"></path><path d="M91.4036 245.95L88.1812 244.381C86.4568 243.541 86.0247 242.35 86.8766 240.6L88.6906 236.874C89.5425 235.125 90.7468 234.73 92.4712 235.57L95.6936 237.138C97.418 237.978 97.8501 239.169 96.9983 240.919L95.1842 244.645C94.3323 246.395 93.1281 246.789 91.4036 245.95ZM90.1471 242.582L91.6072 243.293C92.2114 243.587 92.5109 243.483 92.8051 242.879L94.1411 240.135C94.4352 239.531 94.3319 239.232 93.7277 238.937L92.2676 238.226C91.6634 237.932 91.3639 238.036 91.0698 238.64L89.7337 241.384C89.4396 241.988 89.5429 242.288 90.1471 242.582Z" fill="white"></path><path d="M106.338 252.01L102.959 250.816C101.15 250.176 100.586 249.041 101.235 247.207L102.616 243.3C103.265 241.465 104.417 240.937 106.225 241.576L109.604 242.771C111.412 243.41 111.976 244.545 111.328 246.38L109.947 250.287C109.298 252.121 108.146 252.65 106.338 252.01ZM104.709 248.806L106.24 249.347C106.873 249.571 107.159 249.435 107.383 248.801L108.4 245.924C108.624 245.29 108.488 245.004 107.854 244.78L106.323 244.239C105.69 244.015 105.404 244.152 105.18 244.785L104.162 247.663C103.938 248.296 104.075 248.582 104.709 248.806Z" fill="white"></path><path d="M119.525 251.484L117.803 251.1C116.847 250.886 116.475 250.301 116.689 249.345L117.018 247.869C117.231 246.913 117.816 246.541 118.773 246.754L120.494 247.138C121.451 247.352 121.822 247.937 121.609 248.893L121.28 250.369C121.066 251.325 120.481 251.697 119.525 251.484ZM118.113 255.5L116.664 255.177L125.495 248.254L126.944 248.577L118.113 255.5ZM118.577 249.881L119.342 250.052C119.67 250.125 119.807 250.026 119.877 249.712L120.06 248.892C120.133 248.564 120.048 248.43 119.72 248.357L118.955 248.186C118.627 248.113 118.493 248.198 118.42 248.526L118.237 249.346C118.167 249.66 118.249 249.808 118.577 249.881ZM124.835 257L123.114 256.616C122.157 256.403 121.786 255.818 121.999 254.861L122.328 253.386C122.541 252.429 123.126 252.057 124.083 252.271L125.805 252.655C126.761 252.868 127.133 253.453 126.919 254.41L126.59 255.885C126.377 256.842 125.792 257.213 124.835 257ZM123.888 255.397L124.653 255.568C124.981 255.641 125.117 255.543 125.188 255.228L125.37 254.408C125.444 254.08 125.359 253.947 125.031 253.874L124.266 253.703C123.938 253.63 123.804 253.715 123.731 254.043L123.548 254.862C123.478 255.177 123.56 255.324 123.888 255.397Z" fill="white"></path><path d="M143.408 257.242L143.432 256.305L146.343 256.377L146.333 256.783C146.321 257.245 146.471 257.402 146.933 257.414L149.704 257.482C150.166 257.494 150.324 257.344 150.335 256.882L150.344 256.532C150.355 256.07 150.232 255.955 149.743 255.901L145.805 255.453C144.242 255.26 143.612 254.685 143.649 253.187L143.681 251.871C143.719 250.346 144.436 249.677 145.948 249.715L151.126 249.843C152.637 249.881 153.32 250.584 153.282 252.109L153.263 252.907L150.352 252.835L150.359 252.555C150.37 252.093 150.22 251.935 149.758 251.924L147.323 251.864C146.861 251.852 146.703 252.002 146.692 252.464L146.687 252.646C146.676 253.094 146.827 253.224 147.288 253.277L151.226 253.725C152.79 253.89 153.42 254.48 153.382 255.991L153.345 257.489C153.307 259.014 152.591 259.683 151.079 259.645L145.565 259.508C144.053 259.471 143.37 258.768 143.408 257.242Z" fill="white"></path><path d="M163.251 255.244L163.389 256.806L168.939 256.313L169.151 258.698L160.589 259.458L159.722 249.696L168.145 248.949L168.357 251.333L162.946 251.813L163.067 253.18L167.92 252.749L168.104 254.813L163.251 255.244Z" fill="white"></path><path d="M174.95 255.064L174.119 251.004C173.729 249.097 174.444 248.051 176.323 247.667L180.795 246.752C182.674 246.368 183.742 247.049 184.132 248.956L184.275 249.655L181.312 250.261L181.27 250.056C181.136 249.397 180.871 249.223 180.213 249.357L177.881 249.834C177.223 249.969 177.048 250.233 177.183 250.892L177.845 254.129C177.977 254.773 178.244 254.962 178.903 254.827L181.344 254.328C182.002 254.193 182.174 253.915 182.042 253.27L181.966 252.9L179.827 253.338L179.431 251.404L184.424 250.382L184.962 253.016C185.352 254.922 184.638 255.969 182.759 256.353L178.287 257.268C176.408 257.652 175.34 256.97 174.95 255.064Z" fill="white"></path><path d="M198.877 251.812L194.946 253.124C193.127 253.731 191.985 253.183 191.368 251.337L189.161 244.723L192.03 243.766L194.037 249.782C194.25 250.419 194.534 250.561 195.171 250.348L197.03 249.728C197.668 249.515 197.809 249.232 197.596 248.594L195.589 242.578L198.457 241.621L200.664 248.234C201.28 250.08 200.696 251.205 198.877 251.812Z" fill="white"></path><path d="M213.994 241.795L217.442 243.965L214.476 245.358L211.363 243.339L209.843 244.053L211.181 246.905L208.444 248.19L204.279 239.319L210.59 236.356C212.212 235.594 213.218 235.957 213.98 237.579L214.545 238.783C215.193 240.165 215.02 241.081 213.994 241.795ZM210.421 238.894L207.963 240.048L208.926 242.101L211.385 240.947C211.905 240.703 211.992 240.461 211.748 239.942L211.427 239.257C211.183 238.738 210.941 238.65 210.421 238.894Z" fill="white"></path><path d="M232.242 235.214L229.399 236.98L228.13 235.971L224.717 238.091L225.058 239.676L222.347 241.36L220.673 230.863L223.587 229.053L232.242 235.214ZM223.497 232.306L224.259 235.92L226.388 234.598L223.497 232.306Z" fill="white"></path></g><defs><linearGradient id="paint0_linear_2_891" x1="5.53938" y1="150" x2="294.46" y2="150" gradientUnits="userSpaceOnUse"><stop stop-color="#FFF5A8"></stop><stop offset="0.3123" stop-color="#BD8100"></stop><stop offset="0.7592" stop-color="#E0BE58"></stop><stop offset="1" stop-color="#F1DC83"></stop></linearGradient><radialGradient id="paint1_radial_2_891" cx="0" cy="0" r="1" gradientUnits="userSpaceOnUse" gradientTransform="translate(150 150) rotate(14.3586) scale(133.84 133.84)"><stop offset="0.9132" stop-color="white" stop-opacity="0"></stop><stop offset="1" stop-color="#571600"></stop></radialGradient><radialGradient id="paint2_radial_2_891" cx="0" cy="0" r="1" gradientUnits="userSpaceOnUse" gradientTransform="translate(150 150) scale(134.351 134.351)"><stop stop-color="#FFF5A8"></stop><stop offset="0.7228" stop-color="#FFF5A8"></stop></radialGradient><radialGradient id="paint3_radial_2_891" cx="0" cy="0" r="1" gradientUnits="userSpaceOnUse" gradientTransform="translate(150 150) scale(94.3615)"><stop stop-color="white" stop-opacity="0"></stop><stop offset="1" stop-color="#571600"></stop></radialGradient><linearGradient id="paint4_linear_2_891" x1="258.929" y1="83.4556" x2="36.23" y2="219.501" gradientUnits="userSpaceOnUse"><stop offset="0.005618" stop-color="#FBC01B"></stop><stop offset="0.2528" stop-color="#FFF5A8"></stop><stop offset="0.3151" stop-color="#F8E997"></stop><stop offset="0.4388" stop-color="#E7CA6A"></stop><stop offset="0.6107" stop-color="#CA9922"></stop><stop offset="0.6877" stop-color="#BD8100"></stop><stop offset="1" stop-color="#FFF5A8"></stop></linearGradient><radialGradient id="paint5_radial_2_891" cx="0" cy="0" r="1" gradientUnits="userSpaceOnUse" gradientTransform="translate(150 150) scale(89.0324)"><stop offset="0.8942" stop-color="white" stop-opacity="0"></stop><stop offset="0.9104" stop-color="#DBD4C6" stop-opacity="0.1531"></stop><stop offset="0.9265" stop-color="#BCAF95" stop-opacity="0.3059"></stop><stop offset="0.9424" stop-color="#A2916C" stop-opacity="0.4558"></stop><stop offset="0.9579" stop-color="#8E794D" stop-opacity="0.6021"></stop><stop offset="0.9729" stop-color="#806937" stop-opacity="0.7437"></stop><stop offset="0.9872" stop-color="#785E2A" stop-opacity="0.8787"></stop><stop offset="1" stop-color="#755B25"></stop></radialGradient><linearGradient id="paint6_linear_2_891" x1="90.4549" y1="94.5085" x2="19.8426" y2="215.266" gradientUnits="userSpaceOnUse"><stop offset="0.005618" stop-color="#FBC01B"></stop><stop offset="0.2528" stop-color="#FFF5A8"></stop><stop offset="0.3151" stop-color="#F8E997"></stop><stop offset="0.4388" stop-color="#E7CA6A"></stop><stop offset="0.6107" stop-color="#CA9922"></stop><stop offset="0.6877" stop-color="#BD8100"></stop><stop offset="1" stop-color="#FFF5A8"></stop></linearGradient><linearGradient id="paint7_linear_2_891" x1="208.5" y1="94.5085" x2="279.112" y2="215.266" gradientUnits="userSpaceOnUse"><stop offset="0.005618" stop-color="#FBC01B"></stop><stop offset="0.2528" stop-color="#FFF5A8"></stop><stop offset="0.3151" stop-color="#F8E997"></stop><stop offset="0.4388" stop-color="#E7CA6A"></stop><stop offset="0.6107" stop-color="#CA9922"></stop><stop offset="0.6877" stop-color="#BD8100"></stop><stop offset="1" stop-color="#FFF5A8"></stop></linearGradient><clipPath id="clip0_2_891"><rect width="300" height="300" fill="white"></rect></clipPath></defs></svg>